#!OML:ASF H:\Dans Jumps\Project 1\Capture day 1\Session 1\subject.ASF
:FULLY-SPECIFIED
:DEGREES
401
root 1.19484 17.6638 13.1998 5.61275 5.2392 -2.83791
lowerback -4.94122 -0.116928 1.55386
upperback -0.517441 -0.282749 1.8207
thorax 2.24003 -0.133592 0.980303
lowerneck -14.6984 -0.779045 -2.72524
upperneck 15.0158 -0.706347 1.42898
head 7.03006 -0.365633 0.837911
rclavicle -1.04983e-014 5.56597e-015
rhumerus -24.1781 -16.1431 -83.1867
rradius 24.2882
rwrist 41.5654
rhand -24.1436 -25.8972
rfingers 7.12502
rthumb 2.33871 -55.8641
lclavicle -1.04983e-014 5.56597e-015
lhumerus -30.9516 5.58364 83.634
lradius 16.0697
lwrist -3.85586
lhand -19.9341 -4.38841
lfingers 7.12502
lthumb 6.40343 25.4948
rfemur -10.9154 -3.65196 21.6648
rtibia 20.2113
rfoot -13.9663 -0.0978216
rtoes 13.9312
lfemur -7.69084 7.04663 -16.7486
ltibia 17.9856
lfoot -11.9124 6.49851
ltoes -8.64399
402
root 1.19325 17.6631 13.2162 5.62494 5.16686 -2.8389
lowerback -4.96144 -0.084457 1.5458
upperback -0.521092 -0.239043 1.80007
thorax 2.24727 -0.111773 0.966553
lowerneck -14.7516 -0.802899 -2.77692
upperneck 15.1041 -0.74524 1.535
head 7.06934 -0.377797 0.877011
rclavicle -5.64051e-015 3.22031e-014
rhumerus -24.0462 -16.4924 -83.161
rradius 23.9399
rwrist 42.0451
rhand -24.0915 -25.9099
rfingers 7.12502
rthumb 2.38903 -55.8763
lclavicle -5.64051e-015 3.22031e-014
lhumerus -31.0156 4.73069 84.2613
lradius 16.5682
lwrist -2.77125
lhand -20.0706 -4.6613
lfingers 7.12502
lthumb 6.27161 25.2259
rfemur -10.8691 -3.65369 21.6779
rtibia 20.1994
rfoot -14.0196 -0.0634265
rtoes 13.8808
lfemur -7.58215 7.07953 -16.7329
ltibia 17.8988
lfoot -11.9327 6.5316
ltoes -8.63571
403
root 1.19141 17.6622 13.2314 5.63477 5.10717 -2.84836
lowerback -4.96679 -0.053846 1.547
upperback -0.534148 -0.197657 1.77927
thorax 2.23651 -0.0910996 0.947282
lowerneck -14.7783 -0.829191 -2.80453
upperneck 15.1816 -0.789135 1.6157
head 7.1005 -0.393269 0.90344
rclavicle 5.7896e-015 -1.98785e-016
rhumerus -23.9366 -16.8338 -83.1323
rradius 23.5919
rwrist 42.5305
rhand -24.0371 -25.9181
rfingers 7.12502
rthumb 2.44148 -55.8838
lclavicle 5.7896e-015 -1.98785e-016
lhumerus -31.0683 3.92743 84.8558
lradius 17.0487
lwrist -1.7391
lhand -20.1642 -4.86273
lfingers 7.12502
lthumb 6.18126 25.0271
rfemur -10.8201 -3.65977 21.7003
rtibia 20.1808
rfoot -14.0699 -0.029341
rtoes 13.8618
lfemur -7.49101 7.10722 -16.7073
ltibia 17.8367
lfoot -11.9596 6.56324
ltoes -8.63899
404
root 1.1892 17.6611 13.2454 5.64516 5.05971 -2.86772
lowerback -4.96413 -0.0255139 1.55726
upperback -0.553595 -0.159442 1.75942
thorax 2.21472 -0.0719798 0.923668
lowerneck -14.7837 -0.853199 -2.80561
upperneck 15.2433 -0.831562 1.66914
head 7.12271 -0.40897 0.916785
rclavicle 1.30452e-014 2.5842e-015
rhumerus -23.8485 -17.1441 -83.1071
rradius 23.2598
rwrist 42.9963
rhand -23.9899 -25.9262
rfingers 7.12502
rthumb 2.48714 -55.8915
lclavicle 1.30452e-014 2.5842e-015
lhumerus -31.1031 3.17832 85.4157
lradius 17.4998
lwrist -0.787727
lhand -20.2769 -5.09303
lfingers 7.12502
lthumb 6.07245 24.7999
rfemur -10.7726 -3.66351 21.7339
rtibia 20.1567
rfoot -14.1174 0.000696862
rtoes 13.8851
lfemur -7.42235 7.12824 -16.6698
ltibia 17.8008
lfoot -11.9922 6.59447
ltoes -8.64649
405
root 1.18684 17.6599 13.2586 5.65848 5.02379 -2.89083
lowerback -4.96272 7.41714e-005 1.57159
upperback -0.575153 -0.125085 1.73928
thorax 2.19151 -0.0547611 0.897193
lowerneck -14.7634 -0.878843 -2.78512
upperneck 15.2799 -0.877046 1.69694
head 7.13215 -0.427224 0.917883
rclavicle -6.90777e-015 -3.29983e-014
rhumerus -23.7765 -17.4189 -83.0894
rradius 22.9524
rwrist 43.4355
rhand -23.9467 -25.9333
rfingers 7.12502
rthumb 2.52884 -55.8981
lclavicle -6.90777e-015 -3.29983e-014
lhumerus -31.1102 2.47962 85.9431
lradius 17.9236
lwrist 0.0885971
lhand -20.3112 -5.15335
lfingers 7.12502
lthumb 6.03937 24.7406
rfemur -10.7301 -3.66797 21.7712
rtibia 20.1295
rfoot -14.1615 0.0293838
rtoes 13.9209
lfemur -7.37521 7.14326 -16.6285
ltibia 17.7881
lfoot -12.0298 6.62616
ltoes -8.66094
406
root 1.18451 17.6587 13.2709 5.67552 5.00219 -2.91797
lowerback -4.96906 0.0214991 1.59239
upperback -0.594314 -0.0969183 1.71966
thorax 2.17515 -0.0405552 0.867226
lowerneck -14.7306 -0.905883 -2.75556
upperneck 15.2993 -0.924537 1.71278
head 7.13381 -0.446997 0.913364
rclavicle -7.82715e-016 7.15625e-015
rhumerus -23.7095 -17.6697 -83.0792
rradius 22.6669
rwrist 43.8549
rhand -23.9119 -25.9349
rfingers 7.12502
rthumb 2.56243 -55.8992
lclavicle -7.82715e-016 7.15625e-015
lhumerus -31.0957 1.84653 86.4334
lradius 18.333
lwrist 0.866012
lhand -20.3494 -5.21845
lfingers 7.12502
lthumb 6.00247 24.6765
rfemur -10.6943 -3.67961 21.812
rtibia 20.1027
rfoot -14.2016 0.0607107
rtoes 13.9889
lfemur -7.3472 7.15547 -16.5836
ltibia 17.7928
lfoot -12.0717 6.65284
ltoes -8.68782
407
root 1.18217 17.6575 13.2826 5.69677 4.99214 -2.94557
lowerback -4.9842 0.039154 1.61503
upperback -0.610107 -0.0742266 1.70066
thorax 2.16725 -0.0290358 0.836505
lowerneck -14.7183 -0.928292 -2.74128
upperneck 15.3332 -0.965089 1.74664
head 7.14375 -0.462631 0.917949
rclavicle -1.47411e-014 -2.3059e-014
rhumerus -23.6491 -17.8862 -83.0784
rradius 22.4115
rwrist 44.2418
rhand -23.8557 -25.9434
rfingers 7.12502
rthumb 2.61674 -55.9071
lclavicle -1.47411e-014 -2.3059e-014
lhumerus -31.0642 1.28152 86.8872
lradius 18.7355
lwrist 1.53616
lhand -20.3942 -5.30129
lfingers 7.12502
lthumb 5.95925 24.5949
rfemur -10.6677 -3.69002 21.8529
rtibia 20.0804
rfoot -14.2382 0.0853207
rtoes 14.0488
lfemur -7.33329 7.16054 -16.5391
ltibia 17.8057
lfoot -12.1129 6.67843
ltoes -8.72277
408
root 1.17988 17.6563 13.2936 5.72242 4.99009 -2.96696
lowerback -5.00775 0.0536836 1.63227
upperback -0.621671 -0.0557581 1.68181
thorax 2.16844 -0.0196296 0.808715
lowerneck -14.7134 -0.951968 -2.73762
upperneck 15.3682 -1.00603 1.78719
head 7.15541 -0.478418 0.926403
rclavicle -1.75987e-014 -1.74931e-014
rhumerus -23.5906 -18.0815 -83.0827
rradius 22.1794
rwrist 44.6065
rhand -23.7912 -25.9413
rfingers 7.12502
rthumb 2.67904 -55.9042
lclavicle -1.75987e-014 -1.74931e-014
lhumerus -31.0117 0.757774 87.317
lradius 19.1236
lwrist 2.12202
lhand -20.4334 -5.37854
lfingers 7.12502
lthumb 5.92142 24.5187
rfemur -10.652 -3.69717 21.8867
rtibia 20.0664
rfoot -14.2717 0.101133
rtoes 14.1035
lfemur -7.32846 7.15969 -16.5025
ltibia 17.8191
lfoot -12.1512 6.70146
ltoes -8.75353
409
root 1.1776 17.6551 13.3039 5.74974 4.99535 -2.98296
lowerback -5.033 0.0668074 1.64626
upperback -0.632198 -0.0390319 1.66151
thorax 2.17168 -0.0111063 0.781154
lowerneck -14.7225 -0.975308 -2.75411
upperneck 15.419 -1.04576 1.84962
head 7.17489 -0.492756 0.945438
rclavicle 2.61526e-015 -1.66979e-014
rhumerus -23.5442 -18.2365 -83.0956
rradius 21.9777
rwrist 44.9223
rhand -23.7233 -25.9278
rfingers 7.12502
rthumb 2.74463 -55.8898
lclavicle 2.61526e-015 -1.66979e-014
lhumerus -30.9459 0.244335 87.7325
lradius 19.4969
lwrist 2.65125
lhand -20.4491 -5.41048
lfingers 7.12502
lthumb 5.90623 24.4872
rfemur -10.6448 -3.69745 21.9148
rtibia 20.062
rfoot -14.3029 0.104029
rtoes 14.1462
lfemur -7.32618 7.15193 -16.4727
ltibia 17.8266
lfoot -12.1838 6.72404
ltoes -8.78861
410
root 1.17532 17.6541 13.3136 5.77741 5.00679 -2.98982
lowerback -5.06049 0.0783569 1.65256
upperback -0.639901 -0.0240776 1.6395
thorax 2.1791 -0.00350326 0.756046
lowerneck -14.7325 -0.99982 -2.76948
upperneck 15.4643 -1.08629 1.9064
head 7.19274 -0.507894 0.962346
rclavicle 6.12505e-015 8.74653e-015
rhumerus -23.5105 -18.3394 -83.1191
rradius 21.8112
rwrist 45.1761
rhand -23.6515 -25.9093
rfingers 7.12502
rthumb 2.81392 -55.8705
lclavicle 6.12505e-015 8.74653e-015
lhumerus -30.8627 -0.260252 88.1351
lradius 19.8513
lwrist 3.13685
lhand -20.449 -5.42455
lfingers 7.12502
lthumb 5.90634 24.4731
rfemur -10.6429 -3.69453 21.9332
rtibia 20.0659
rfoot -14.3357 0.0965931
rtoes 14.1774
lfemur -7.32273 7.13776 -16.4535
ltibia 17.8255
lfoot -12.212 6.744
ltoes -8.8145
411
root 1.17304 17.6532 13.3227 5.80582 5.02727 -2.99264
lowerback -5.08788 0.0880461 1.65666
upperback -0.647068 -0.0114658 1.61647
thorax 2.18703 0.00292001 0.730972
lowerneck -14.7304 -1.02662 -2.7733
upperneck 15.4903 -1.12942 1.94507
head 7.20212 -0.525266 0.971151
rclavicle -9.64106e-015 9.54166e-015
rhumerus -23.4969 -18.3788 -83.1553
rradius 21.688
rwrist 45.3497
rhand -23.5825 -25.8913
rfingers 7.12502
rthumb 2.8806 -55.8515
lclavicle -9.64106e-015 9.54166e-015
lhumerus -30.7624 -0.762232 88.5249
lradius 20.1847
lwrist 3.59388
lhand -20.4476 -5.44626
lfingers 7.12502
lthumb 5.90765 24.4514
rfemur -10.6447 -3.69091 21.9484
rtibia 20.0736
rfoot -14.37 0.0761584
rtoes 14.1884
lfemur -7.32011 7.11794 -16.4391
ltibia 17.8165
lfoot -12.2366 6.76052
ltoes -8.83204
412
root 1.17076 17.6523 13.3312 5.83202 5.05903 -2.99533
lowerback -5.11457 0.0944103 1.66262
upperback -0.652549 -0.00340305 1.59335
thorax 2.19632 0.00710033 0.704462
lowerneck -14.7337 -1.04795 -2.7658
upperneck 15.5121 -1.16535 1.97222
head 7.21081 -0.539538 0.975069
rclavicle 1.79527e-014 5.1684e-015
rhumerus -23.5005 -18.349 -83.2061
rradius 21.6078
rwrist 45.439
rhand -23.5267 -25.8802
rfingers 7.12502
rthumb 2.93447 -55.8397
lclavicle 1.79527e-014 5.1684e-015
lhumerus -30.6526 -1.25633 88.9002
lradius 20.506
lwrist 4.02188
lhand -20.4452 -5.45142
lfingers 7.12502
lthumb 5.90996 24.4462
rfemur -10.6433 -3.69681 21.9646
rtibia 20.0802
rfoot -14.4066 0.0503783
rtoes 14.2116
lfemur -7.3161 7.09416 -16.4245
ltibia 17.8024
lfoot -12.2589 6.7702
ltoes -8.85322
413
root 1.16855 17.6516 13.3392 5.85495 5.10168 -3.00124
lowerback -5.14125 0.0983511 1.67494
upperback -0.655075 0.00100567 1.57034
thorax 2.20864 0.00953258 0.674258
lowerneck -14.7278 -1.06924 -2.75051
upperneck 15.518 -1.20074 1.98675
head 7.21258 -0.554269 0.973618
rclavicle 1.52505e-014 -5.36719e-015
rhumerus -23.5194 -18.2595 -83.2712
rradius 21.5731
rwrist 45.4495
rhand -23.4841 -25.8751
rfingers 7.12502
rthumb 2.97555 -55.8341
lclavicle 1.52505e-014 -5.36719e-015
lhumerus -30.5261 -1.74308 89.2592
lradius 20.8139
lwrist 4.43347
lhand -20.4917 -5.53847
lfingers 7.12502
lthumb 5.86512 24.3604
rfemur -10.6351 -3.71383 21.9851
rtibia 20.0802
rfoot -14.4447 0.0218329
rtoes 14.222
lfemur -7.31161 7.06806 -16.406
ltibia 17.7879
lfoot -12.2807 6.77299
ltoes -8.87792
414
root 1.1664 17.6509 13.3468 5.87346 5.15512 -3.00826
lowerback -5.16507 0.0992339 1.69153
upperback -0.656058 0.00115261 1.54698
thorax 2.22095 0.00988306 0.64099
lowerneck -14.7192 -1.08887 -2.73598
upperneck 15.5227 -1.23359 2.00038
head 7.21342 -0.567923 0.972271
rclavicle -2.9445e-015 -2.66371e-014
rhumerus -23.5519 -18.1219 -83.3483
rradius 21.5773
rwrist 45.3935
rhand -23.452 -25.8731
rfingers 7.12502
rthumb 3.00654 -55.8317
lclavicle -2.9445e-015 -2.66371e-014
lhumerus -30.3906 -2.2077 89.5957
lradius 21.1193
lwrist 4.82297
lhand -20.5644 -5.64302
lfingers 7.12502
lthumb 5.79492 24.2577
rfemur -10.617 -3.74388 22.0073
rtibia 20.0705
rfoot -14.4817 -0.00620098
rtoes 14.2437
lfemur -7.30701 7.0424 -16.3857
ltibia 17.7769
lfoot -12.3046 6.76652
ltoes -8.90639
